<?xml version="1.0" encoding="UTF-8"?>
<svg id="Layer_1" data-name="Layer 1" xmlns="http://www.w3.org/2000/svg" viewBox="0 0 28 38.57">
  <g>
    <path d="M11.15,0c-1.28,.28-2.54,.68-3.73,1.28,.03,1.05,.09,2.05,.23,3.07-.46,.3-.94,.55-1.38,.89-.44,.34-.88,.66-1.28,1.05-.79-.52-1.63-1.01-2.49-1.45-.93,1-1.8,2.08-2.51,3.29,.56,.88,1.16,1.76,1.71,2.44v7.42s.03,0,.04,0l4.55,.44c.24,.02,.42,.21,.44,.45l.14,2.01,3.97,.28,.27-1.85c.04-.24,.24-.42,.48-.42h4.8c.24,0,.45,.18,.48,.42l.27,1.85,3.97-.28,.14-2.01c.02-.24,.2-.43,.44-.45l4.54-.44s.03,0,.04,0v-.59h0v-6.82c.64-.81,1.25-1.69,1.71-2.44-.71-1.21-1.58-2.29-2.51-3.29-.86,.43-1.7,.93-2.49,1.45-.4-.39-.84-.72-1.28-1.05-.43-.35-.91-.6-1.37-.89,.14-1.02,.2-2.02,.23-3.07-1.19-.6-2.45-.99-3.73-1.28-.51,.86-.98,1.79-1.39,2.7-.48-.08-.97-.11-1.45-.12h0s0,0,0,0,0,0,0,0h0c-.49,0-.97,.04-1.45,.12-.41-.91-.87-1.84-1.39-2.7Zm-3.6,10.85c1.51,0,2.74,1.23,2.74,2.74s-1.23,2.74-2.74,2.74-2.74-1.23-2.74-2.74,1.23-2.74,2.74-2.74Zm12.89,0c1.51,0,2.74,1.23,2.74,2.74s-1.23,2.74-2.74,2.74-2.74-1.23-2.74-2.74,1.23-2.74,2.74-2.74Zm-6.44,1.6c.49,0,.88,.36,.88,.8v2.52c0,.44-.4,.8-.88,.8s-.88-.36-.88-.8v-2.52c0-.44,.39-.8,.88-.8Z" style="fill: #fff;"/>
    <path d="M22.21,19.37l-.14,2.02c-.02,.24-.21,.44-.45,.45l-4.84,.35s-.02,0-.04,0c-.24,0-.45-.18-.48-.42l-.28-1.88h-3.95l-.28,1.88c-.04,.25-.26,.44-.52,.42l-4.84-.35c-.24-.02-.44-.21-.45-.45l-.14-2.02-4.09-.39c0,.44,0,.92,0,1.02,0,4.32,5.48,6.39,12.28,6.42h.02c6.8-.02,12.28-2.1,12.28-6.42,0-.1,0-.58,0-1.02l-4.09,.39Z" style="fill: #fff;"/>
    <path d="M9.64,13.75c0,1-.81,1.82-1.82,1.82s-1.82-.81-1.82-1.82,.81-1.82,1.82-1.82,1.82,.81,1.82,1.82" style="fill: #fff;"/>
    <path d="M18.36,13.75c0,1,.81,1.82,1.82,1.82s1.82-.81,1.82-1.82-.81-1.82-1.82-1.82-1.82,.81-1.82,1.82" style="fill: #fff;"/>
  </g>
  <g>
    <path d="M3.77,30.95c.08-.28,.18-.59,.29-.91l.62-1.72h.92v3.59h-.66v-1.82c0-.27,.01-.58,.03-.93h-.02c-.03,.1-.07,.22-.11,.34-.04,.13-.08,.25-.13,.38l-.74,2.03h-.42l-.74-2.03c-.04-.12-.09-.25-.13-.38-.04-.13-.08-.24-.11-.34h-.02c.02,.33,.03,.64,.03,.93v1.82h-.66v-3.59h.92l.62,1.71c.1,.28,.2,.59,.29,.92h.02Z" style="fill: #fff;"/>
    <path d="M7.91,31.64h-.01s-.08,.08-.13,.12c-.05,.04-.11,.08-.17,.11-.06,.03-.14,.06-.21,.08-.08,.02-.16,.03-.25,.03-.12,0-.24-.02-.35-.06-.11-.04-.2-.09-.28-.17-.08-.07-.14-.16-.18-.26-.04-.1-.07-.22-.07-.34,0-.14,.03-.26,.08-.38,.05-.11,.12-.2,.21-.28,.09-.08,.2-.14,.33-.18,.13-.04,.27-.06,.42-.06,.11,0,.22,0,.31,.02,.09,.01,.18,.03,.25,.05v-.1c0-.06-.01-.12-.03-.18-.02-.06-.05-.11-.1-.15-.05-.04-.11-.08-.18-.1-.07-.03-.16-.04-.27-.04-.13,0-.26,.01-.39,.04-.13,.03-.27,.07-.42,.13v-.5c.13-.06,.27-.1,.42-.13,.15-.03,.3-.05,.46-.05,.19,0,.36,.02,.5,.07,.14,.05,.26,.11,.36,.19,.1,.08,.17,.18,.21,.29,.05,.11,.07,.23,.07,.36v.98c0,.17,0,.32,0,.44,0,.12,0,.23,.01,.33h-.57l-.03-.28Zm-.05-.83c-.06-.01-.13-.03-.21-.04-.08-.01-.16-.02-.24-.02-.16,0-.28,.03-.37,.09-.09,.06-.14,.16-.14,.28,0,.06,.01,.11,.03,.15,.02,.04,.05,.08,.08,.11,.03,.03,.08,.05,.12,.06,.05,.01,.1,.02,.15,.02,.06,0,.13,0,.18-.03,.06-.02,.11-.04,.16-.06,.05-.03,.09-.05,.13-.09,.04-.03,.07-.06,.1-.09v-.4Z" style="fill: #fff;"/>
    <path d="M9.07,30.67c0-.23,.03-.43,.09-.61,.06-.18,.15-.33,.26-.45,.11-.12,.23-.21,.37-.27,.14-.06,.28-.09,.43-.09,.07,0,.14,0,.2,.02,.06,.01,.12,.03,.18,.05,.06,.02,.11,.05,.16,.07s.09,.05,.13,.08h0s0-.09,0-.15c0-.07,0-.14,0-.21v-1.08h.64v3.11c0,.17,0,.32,0,.44,0,.12,0,.23,.01,.33h-.57l-.03-.28h-.01s-.08,.09-.14,.13c-.05,.04-.11,.08-.17,.11-.06,.03-.13,.06-.21,.07-.08,.02-.16,.03-.25,.03-.14,0-.28-.03-.41-.08-.13-.05-.25-.13-.35-.23-.1-.1-.19-.24-.25-.41-.06-.17-.09-.37-.09-.6Zm1.25,.81c.06,0,.12,0,.18-.02s.11-.04,.16-.06c.05-.03,.09-.06,.13-.09,.04-.03,.07-.06,.1-.09v-1.23c-.08-.06-.16-.11-.25-.15-.09-.04-.19-.06-.29-.06-.07,0-.14,.01-.21,.04s-.14,.07-.2,.14c-.06,.06-.11,.15-.15,.27-.04,.11-.06,.26-.06,.44,0,.26,.05,.46,.15,.61,.1,.15,.25,.22,.44,.22Z" style="fill: #fff;"/>
    <path d="M13.61,31.47c.12,0,.25-.01,.39-.04,.13-.03,.27-.06,.41-.11v.51c-.08,.04-.21,.07-.38,.1-.17,.03-.35,.05-.53,.05s-.36-.02-.52-.07c-.17-.05-.31-.12-.43-.23-.12-.11-.22-.24-.29-.41-.07-.17-.11-.37-.11-.61s.03-.44,.1-.62c.07-.18,.16-.32,.27-.44,.11-.12,.25-.2,.39-.26,.15-.06,.3-.09,.46-.09s.32,.03,.45,.08c.14,.05,.26,.13,.36,.24,.1,.11,.18,.25,.24,.41,.06,.17,.08,.37,.08,.6,0,.09,0,.17,0,.23h-1.7c0,.12,.04,.22,.08,.31,.04,.08,.1,.15,.18,.21,.07,.05,.16,.09,.25,.12,.1,.02,.2,.04,.31,.04Zm-.25-1.72c-.08,0-.15,.01-.21,.04-.06,.03-.12,.07-.16,.12-.05,.05-.08,.11-.11,.18-.03,.07-.04,.14-.05,.22h1.02c0-.08-.01-.15-.03-.22-.02-.07-.05-.13-.09-.18-.04-.05-.09-.09-.15-.12-.06-.03-.13-.04-.21-.04Z" style="fill: #fff;"/>
    <path d="M17.92,30.02c-.05,.26-.11,.51-.18,.75l-.31,1.14h-.62l-.91-2.6h.67l.34,1.09c.08,.25,.14,.5,.2,.73h.01c.05-.23,.11-.47,.18-.73l.3-1.09h.67l.29,1.09c.06,.23,.12,.47,.18,.73h.01c.06-.24,.13-.49,.2-.73l.34-1.09h.67l-.91,2.6h-.62l-.31-1.14c-.07-.26-.13-.51-.18-.75h-.01Z" style="fill: #fff;"/>
    <path d="M20.33,28.03h.67v.69h-.67v-.69Zm.02,1.28h.64v2.6h-.64v-2.6Z" style="fill: #fff;"/>
    <path d="M23.28,31.91c-.07,.02-.16,.04-.26,.05-.1,.01-.19,.02-.28,.02-.22,0-.4-.04-.53-.11-.14-.07-.24-.17-.29-.3-.04-.09-.06-.22-.06-.39v-1.35h-.49v-.52h.49v-.73h.64v.73h.75v.52h-.75v1.26c0,.1,.02,.17,.05,.22,.05,.08,.16,.12,.32,.12,.07,0,.15,0,.22-.02,.07-.01,.14-.03,.21-.04v.53Z" style="fill: #fff;"/>
    <path d="M24.44,29.09c0,.13,0,.24,0,.33,0,.09-.01,.16-.02,.23h.01c.04-.05,.08-.1,.14-.15,.05-.05,.11-.09,.18-.13,.07-.04,.14-.07,.22-.09,.08-.02,.17-.03,.27-.03,.09,0,.17,0,.25,.03,.08,.02,.16,.04,.23,.08,.07,.04,.13,.08,.19,.14,.06,.06,.11,.13,.15,.2,.03,.07,.06,.14,.08,.23s.02,.19,.02,.31v1.67h-.64v-1.58c0-.08,0-.15-.01-.2,0-.05-.02-.1-.04-.13-.04-.08-.09-.13-.16-.17s-.15-.05-.24-.05c-.12,0-.24,.03-.34,.09-.1,.06-.2,.14-.29,.25v1.79h-.64v-3.88h.64v1.06Z" style="fill: #fff;"/>
    <path d="M7.39,37.13h-.8v-.55h1.46v1.81c-.05,.02-.12,.04-.21,.06s-.18,.04-.28,.06c-.1,.02-.21,.03-.32,.04-.11,.01-.22,.02-.32,.02-.32,0-.6-.04-.84-.13-.24-.09-.44-.21-.6-.37-.16-.16-.28-.34-.36-.56-.08-.22-.12-.46-.12-.72,0-.19,.02-.36,.06-.53,.04-.17,.1-.33,.19-.47,.08-.14,.18-.27,.3-.39,.12-.12,.25-.22,.4-.3,.15-.08,.31-.15,.49-.19,.18-.04,.37-.07,.57-.07,.18,0,.35,.01,.51,.04,.16,.03,.3,.06,.4,.1v.56c-.14-.04-.28-.08-.42-.1-.14-.02-.29-.03-.43-.03-.19,0-.38,.03-.55,.09-.17,.06-.32,.14-.44,.26-.12,.11-.22,.25-.29,.42-.07,.17-.11,.36-.11,.58,0,.42,.11,.74,.33,.95,.22,.21,.53,.32,.94,.32,.08,0,.15,0,.23-.01,.08,0,.15-.02,.21-.03v-.84Z" style="fill: #fff;"/>
    <path d="M12.19,36.71c0,.27-.04,.52-.12,.75-.08,.23-.19,.42-.34,.59-.15,.16-.33,.29-.55,.38s-.46,.14-.74,.14-.52-.05-.74-.14-.4-.22-.55-.38c-.15-.16-.26-.36-.34-.59-.08-.23-.12-.48-.12-.75s.04-.52,.12-.75c.08-.23,.19-.42,.34-.59,.15-.16,.33-.29,.55-.38s.46-.14,.74-.14,.52,.05,.74,.14,.4,.22,.55,.38c.15,.16,.26,.36,.34,.59,.08,.23,.12,.48,.12,.75Zm-.68,0c0-.22-.03-.41-.08-.57-.05-.16-.13-.3-.22-.41-.09-.11-.21-.19-.34-.24-.13-.05-.27-.08-.43-.08s-.3,.03-.43,.08c-.13,.05-.24,.13-.34,.24-.09,.11-.17,.25-.22,.41-.05,.16-.08,.35-.08,.57s.03,.41,.08,.57c.05,.16,.13,.3,.22,.41,.09,.11,.21,.19,.34,.24,.13,.05,.27,.08,.43,.08s.3-.03,.43-.08c.13-.05,.24-.14,.34-.24,.09-.11,.17-.24,.22-.41,.05-.16,.08-.35,.08-.57Z" style="fill: #fff;"/>
    <path d="M12.88,38.5v-3.59h.95c.08,0,.17,0,.26,0,.09,0,.17,.01,.25,.02,.08,.01,.16,.02,.24,.04,.08,.02,.15,.03,.21,.05,.19,.06,.36,.14,.51,.25,.15,.1,.27,.23,.37,.37,.1,.14,.17,.3,.23,.47,.05,.17,.08,.36,.08,.57,0,.19-.02,.37-.06,.54-.04,.17-.11,.32-.2,.46-.09,.14-.2,.26-.33,.37-.13,.11-.29,.19-.47,.26-.15,.06-.32,.1-.52,.13-.19,.03-.41,.04-.65,.04h-.85Zm.93-.55c.38,0,.68-.05,.9-.16,.19-.09,.34-.23,.43-.41,.1-.18,.15-.41,.15-.69,0-.15-.02-.28-.05-.4s-.08-.22-.14-.32c-.06-.09-.13-.17-.22-.24-.09-.07-.18-.12-.29-.16-.1-.04-.22-.07-.34-.09-.13-.02-.27-.03-.42-.03h-.29v2.49h.27Z" style="fill: #fff;"/>
    <path d="M20,36.71c0,.27-.04,.52-.12,.75-.08,.23-.19,.42-.34,.59-.15,.16-.33,.29-.55,.38-.22,.09-.46,.14-.74,.14s-.52-.05-.74-.14c-.22-.09-.4-.22-.55-.38-.15-.16-.26-.36-.34-.59-.08-.23-.12-.48-.12-.75s.04-.52,.12-.75c.08-.23,.19-.42,.34-.59,.15-.16,.33-.29,.55-.38,.22-.09,.46-.14,.74-.14s.52,.05,.74,.14c.22,.09,.4,.22,.55,.38,.15,.16,.26,.36,.34,.59,.08,.23,.12,.48,.12,.75Zm-.68,0c0-.22-.03-.41-.08-.57-.05-.16-.13-.3-.22-.41-.09-.11-.21-.19-.34-.24-.13-.05-.27-.08-.43-.08s-.3,.03-.43,.08c-.13,.05-.24,.13-.34,.24-.09,.11-.17,.25-.22,.41-.05,.16-.08,.35-.08,.57s.03,.41,.08,.57c.05,.16,.13,.3,.22,.41,.09,.11,.21,.19,.34,.24,.13,.05,.27,.08,.43,.08s.3-.03,.43-.08c.13-.05,.24-.14,.34-.24,.09-.11,.17-.24,.22-.41,.05-.16,.08-.35,.08-.57Z" style="fill: #fff;"/>
    <path d="M22.03,38.5h-.66v-3.04h-1.16v-.55h2.97v.55h-1.16v3.04Z" style="fill: #fff;"/>
  </g>
  <text/>
</svg>